<?xml version="1.0" encoding="UTF-8" standalone="no"?>
<svg
   width="2rem"
   height="2rem"
   viewBox="0 0 60 60"
   aria-hidden="true"
   role="img"
   class="iconify iconify--emojione-monotone"
   preserveAspectRatio="xMidYMid"
   fill="#000000"
   version="1.1"
   id="svg1"
   sodipodi:docname="asterisk.svg"
   inkscape:version="1.4 (e7c3feb1, 2024-10-09)"
   xmlns:inkscape="http://www.inkscape.org/namespaces/inkscape"
   xmlns:sodipodi="http://sodipodi.sourceforge.net/DTD/sodipodi-0.dtd"
   xmlns="http://www.w3.org/2000/svg"
   xmlns:svg="http://www.w3.org/2000/svg">
  <defs
     id="defs1" />
  <sodipodi:namedview
     id="namedview1"
     pagecolor="#ffffff"
     bordercolor="#000000"
     borderopacity="0.25"
     inkscape:showpageshadow="2"
     inkscape:pageopacity="0.0"
     inkscape:pagecheckerboard="0"
     inkscape:deskcolor="#d1d1d1"
     inkscape:zoom="2.6136818"
     inkscape:cx="45.147042"
     inkscape:cy="45.529644"
     inkscape:window-width="1400"
     inkscape:window-height="755"
     inkscape:window-x="0"
     inkscape:window-y="37"
     inkscape:window-maximized="0"
     inkscape:current-layer="svg1" />
  <g
     id="SVGRepo_bgCarrier"
     stroke-width="0"
     transform="translate(-2,-2)" />
  <g
     id="SVGRepo_tracerCarrier"
     stroke-linecap="round"
     stroke-linejoin="round"
     transform="translate(-2,-2)" />
  <g
     id="SVGRepo_iconCarrier"
     transform="translate(-2,-2)">
    <path
       d="M 32,2 C 15.432,2 2,15.431 2,32 2,48.569 15.432,62 32,62 48.568,62 62,48.568 62,32 62,15.431 48.568,2 32,2 m 13.475,34.291 c 0.377,0.162 0.549,0.477 0.523,0.943 -0.027,0.469 -0.35,1.223 -0.967,2.264 -0.617,1.072 -1.121,1.725 -1.51,1.967 -0.389,0.24 -0.744,0.24 -1.066,0 L 33.881,35.25 35.01,45.758 c 0.078,0.398 -0.096,0.707 -0.525,0.92 C 34.057,46.893 33.223,47 31.99,47 c -1.236,0 -2.066,-0.107 -2.496,-0.322 -0.43,-0.213 -0.604,-0.521 -0.523,-0.92 l 1.127,-10.508 -8.533,6.215 c -0.322,0.24 -0.686,0.24 -1.088,0 -0.402,-0.242 -0.912,-0.895 -1.529,-1.967 -0.617,-1.041 -0.934,-1.795 -0.945,-2.264 -0.016,-0.467 0.168,-0.781 0.543,-0.943 l 9.701,-4.29 -9.701,-4.252 c -0.375,-0.188 -0.559,-0.516 -0.543,-0.984 0.012,-0.467 0.328,-1.223 0.945,-2.264 0.617,-1.045 1.127,-1.686 1.529,-1.926 0.402,-0.24 0.766,-0.24 1.088,0 l 8.533,6.176 -1.127,-10.467 c -0.08,-0.428 0.094,-0.748 0.523,-0.963 C 29.923,17.106 30.754,17 31.99,17 c 1.232,0 2.066,0.107 2.494,0.322 0.43,0.215 0.604,0.535 0.525,0.963 l -1.129,10.467 8.574,-6.176 c 0.322,-0.24 0.678,-0.24 1.066,0 0.388,0.24 0.893,0.896 1.51,1.965 0.617,1.018 0.939,1.758 0.967,2.225 0.025,0.469 -0.146,0.797 -0.523,0.984 l -9.701,4.252 9.702,4.289"
       fill="#792fc4"
       id="path1" />
  </g>
</svg>
